<svg width="316" height="139" viewBox="0 0 316 139" fill="none" xmlns="http://www.w3.org/2000/svg">
<g clip-path="url(#clip0_1_2)">
<path d="M87.7679 95H42.288V94.796C36.7204 95.4938 31.0805 94.2582 26.3309 91.3002C21.5813 88.3421 18.0163 83.8449 16.2444 78.5759C14.4725 73.307 14.6034 67.593 16.6148 62.4089C18.6262 57.2249 22.3934 52.8921 27.2736 50.15C27.9695 42.9951 31.2386 36.3253 36.4859 31.3544C41.7332 26.3835 48.61 23.4419 55.8645 23.0651C63.1191 22.6883 70.2693 24.9012 76.0138 29.3011C81.7583 33.7011 85.7153 39.9956 87.1645 47.039C87.3677 47.039 87.5648 47 87.7709 47C94.204 47.0004 100.373 49.5293 104.922 54.0305C109.471 58.5317 112.026 64.6363 112.025 71.0015C112.025 77.3667 109.469 83.471 104.92 87.9716C100.371 92.4722 94.201 95.0004 87.7679 95ZM87.7679 59H87.1615C85.2209 59.3029 83.2443 59.3029 81.3037 59H75.6399V53C75.6399 48.2261 73.7233 43.6477 70.3116 40.2721C66.9 36.8964 62.2728 35 57.448 35C52.6232 35 47.996 36.8964 44.5844 40.2721C41.1727 43.6477 39.2561 48.2261 39.2561 53V59C37.1384 59.1439 35.0737 59.72 33.1921 60.692L31.3153 62C30.9041 62.3564 30.5181 62.7403 30.1601 63.149C29.8632 63.4225 29.6088 63.7379 29.4051 64.085C27.9297 66.0956 27.1329 68.5154 27.1281 71C27.1243 73.7056 28.0095 76.339 29.6501 78.5035C31.2907 80.6679 33.598 82.246 36.2241 83H87.7679C90.9843 82.9998 94.0688 81.7354 96.3431 79.485C98.6173 77.2345 99.8949 74.1824 99.8949 71C99.8949 67.8176 98.6173 64.7655 96.3431 62.515C94.0688 60.2646 90.9843 59.0002 87.7679 59Z" fill="#409EFF"/>
<rect x="39" y="79.3077" width="49" height="36" fill="white"/>
</g>
<path d="M84.7391 64.9688H71.9641C70.7094 61.9688 67.4016 60 63.4094 60C59.4172 60 56.1094 61.9688 54.8547 64.9688H42.0797C40.2547 64.9688 39 66 39 67.5C39 69 40.2547 70.0312 42.0797 70.0312H49.95C46.9844 72 45.1594 75.2812 45.1594 78.75V99.4687C45.1594 104.25 48.8094 108.469 54.2844 110.25V112.5C54.2844 116.719 58.2766 120 63.4094 120C68.5422 120 72.5344 116.719 72.5344 112.5V110.25C78.0094 108.75 81.6594 104.531 81.6594 99.4687V78.75C81.6594 75.2812 79.8344 72.2812 76.7547 70.0312H84.625C86.45 70.0312 87.7047 69 87.7047 67.5C87.7047 66 86.5641 64.9688 84.7391 64.9688ZM63.4094 64.9688C65.2344 64.9688 66.4891 66 66.4891 67.5C66.4891 69 65.2344 70.0312 63.4094 70.0312C61.5844 70.0312 60.3297 69 60.3297 67.5C60.3297 66 61.5844 64.9688 63.4094 64.9688ZM66.4891 112.5C66.4891 114 65.2344 115.031 63.4094 115.031C61.5844 115.031 60.3297 114 60.3297 112.5V107.531C60.3297 106.031 61.5844 105 63.4094 105C65.2344 105 66.4891 106.031 66.4891 107.531V112.5ZM75.6141 99.4687C75.6141 101.719 74.1312 103.688 71.9641 105C70.7094 102 67.4016 100.031 63.4094 100.031C59.4172 100.031 56.1094 102 54.8547 104.812C52.6875 103.594 51.2047 101.531 51.2047 99.2813V78.4688C51.2047 75.75 53.6 73.2188 56.6797 72.4688C58.1625 73.9688 60.6719 75 63.4094 75C66.1469 75 68.3141 73.9688 70.1391 72.4688C73.4469 73.2188 75.6141 75.75 75.6141 78.4688V99.4687Z" fill="#409EFF"/>
<path d="M148.9 74.45C149.067 74.9167 149.183 75.45 149.25 76.05C149.35 76.6167 149.4 77.2 149.4 77.8C149.4 78.4 149.35 79 149.25 79.6C149.183 80.1667 149.083 80.6667 148.95 81.1C148.417 82.9667 147.35 84.5333 145.75 85.8C144.15 87.0333 142.317 87.9333 140.25 88.5C138.217 89.0667 136.1 89.2667 133.9 89.1C131.733 88.9333 129.8 88.3833 128.1 87.45C127.033 86.85 126.117 86.1167 125.35 85.25C124.583 84.3833 123.933 83.4167 123.4 82.35C123.2 81.9833 123.067 81.5667 123 81.1C122.967 80.6 123.017 80.1333 123.15 79.7C123.283 79.2333 123.5 78.8333 123.8 78.5C124.1 78.1333 124.517 77.8833 125.05 77.75C125.383 77.6833 125.75 77.65 126.15 77.65C126.583 77.65 127 77.7167 127.4 77.85C127.8 77.95 128.167 78.1333 128.5 78.4C128.833 78.6333 129.1 78.9667 129.3 79.4C129.667 80.1 130.183 80.75 130.85 81.35C131.55 81.9167 132.283 82.3833 133.05 82.75C134.15 83.1167 135.25 83.2667 136.35 83.2C137.483 83.1333 138.5 82.8833 139.4 82.45C140.333 82.0167 141.083 81.4333 141.65 80.7C142.217 79.9333 142.5 79.0667 142.5 78.1C142.5 77.3 142.383 76.65 142.15 76.15C141.917 75.6167 141.583 75.1833 141.15 74.85C140.75 74.4833 140.25 74.1833 139.65 73.95C139.083 73.7167 138.45 73.5167 137.75 73.35C136.95 73.1833 136.133 73.0667 135.3 73C134.5 72.9333 133.683 72.85 132.85 72.75C132.017 72.65 131.2 72.5167 130.4 72.35C129.6 72.1833 128.817 71.9333 128.05 71.6C126.517 70.9667 125.35 70 124.55 68.7C123.75 67.4 123.267 66 123.1 64.5C122.967 63 123.15 61.5167 123.65 60.05C124.15 58.55 124.95 57.2667 126.05 56.2C127.117 55.2333 128.383 54.55 129.85 54.15C131.35 53.7167 133 53.4667 134.8 53.4C135.8 53.3667 136.8 53.4 137.8 53.5C138.833 53.6 139.817 53.7667 140.75 54C141.717 54.2333 142.6 54.5333 143.4 54.9C144.233 55.2667 144.95 55.7 145.55 56.2C145.983 56.5333 146.417 56.9833 146.85 57.55C147.283 58.0833 147.617 58.6667 147.85 59.3C148.083 59.9 148.15 60.4833 148.05 61.05C147.983 61.6167 147.633 62.1 147 62.5C146.467 62.8333 145.95 62.9833 145.45 62.95C144.983 62.8833 144.533 62.7333 144.1 62.5C143.667 62.2333 143.25 61.9333 142.85 61.6C142.45 61.2667 142.083 60.9667 141.75 60.7C140.85 60.0333 139.733 59.5833 138.4 59.35C137.067 59.1167 135.817 59.0667 134.65 59.2C133.917 59.3 133.233 59.4667 132.6 59.7C131.967 59.9333 131.417 60.25 130.95 60.65C130.517 61.05 130.167 61.55 129.9 62.15C129.667 62.7167 129.583 63.3667 129.65 64.1C129.683 64.6333 129.833 65.0833 130.1 65.45C130.4 65.8167 130.75 66.1167 131.15 66.35C131.583 66.5833 132.05 66.7667 132.55 66.9C133.05 67.0333 133.55 67.1333 134.05 67.2C135.55 67.4 137.05 67.55 138.55 67.65C140.05 67.75 141.517 68.0833 142.95 68.65C144.417 69.2167 145.667 69.9833 146.7 70.95C147.733 71.9167 148.467 73.0833 148.9 74.45ZM172.02 69.75C172.287 70.2167 172.42 70.7167 172.42 71.25C172.453 71.7833 172.337 72.2833 172.07 72.75C171.77 73.35 171.337 73.7667 170.77 74C170.237 74.2 169.637 74.2167 168.97 74.05C168.67 73.9833 168.403 73.8667 168.17 73.7C167.937 73.5333 167.687 73.3667 167.42 73.2C167.187 73 166.903 72.8167 166.57 72.65C166.27 72.4833 165.87 72.3667 165.37 72.3C164.87 72.2333 164.32 72.2333 163.72 72.3C163.153 72.3667 162.637 72.5 162.17 72.7C161.437 73.0667 160.853 73.6333 160.42 74.4C159.987 75.1333 159.703 75.9333 159.57 76.8C159.437 77.6333 159.453 78.4833 159.62 79.35C159.82 80.2167 160.187 80.95 160.72 81.55C161.12 82.0167 161.637 82.4 162.27 82.7C162.937 83 163.57 83.1833 164.17 83.25C164.737 83.3167 165.303 83.3167 165.87 83.25C166.437 83.15 166.987 83.0167 167.52 82.85C167.92 82.6833 168.37 82.4667 168.87 82.2C169.37 81.9 169.853 81.7167 170.32 81.65C170.92 81.65 171.387 81.8167 171.72 82.15C172.053 82.45 172.287 82.8333 172.42 83.3C172.553 83.7333 172.57 84.2 172.47 84.7C172.403 85.2 172.22 85.6333 171.92 86C171.52 86.5 170.953 86.9833 170.22 87.45C169.487 87.8833 168.787 88.2 168.12 88.4C167.32 88.6667 166.42 88.8167 165.42 88.85C164.453 88.8833 163.537 88.85 162.67 88.75C162.27 88.6833 161.853 88.6 161.42 88.5C160.987 88.4 160.57 88.2833 160.17 88.15C158.703 87.6167 157.47 86.8667 156.47 85.9C155.503 84.9 154.753 83.7833 154.22 82.55C153.72 81.3167 153.437 80 153.37 78.6C153.303 77.2 153.47 75.8167 153.87 74.45C154.237 73.15 154.687 72.05 155.22 71.15C155.787 70.25 156.437 69.5167 157.17 68.95C157.937 68.35 158.787 67.8833 159.72 67.55C160.653 67.1833 161.687 66.8667 162.82 66.6C163.987 66.3667 165.22 66.3667 166.52 66.6C167.82 66.8333 168.987 67.2667 170.02 67.9C170.82 68.3333 171.487 68.95 172.02 69.75ZM182.966 66.4C184.066 65.8667 185.216 65.4833 186.416 65.25C187.616 65.0167 188.799 64.9667 189.966 65.1C191.166 65.2333 192.316 65.55 193.416 66.05C194.549 66.55 195.582 67.25 196.516 68.15C197.282 68.9167 197.949 69.85 198.516 70.95C199.082 72.0167 199.499 73.0667 199.766 74.1C200.332 75.9333 200.416 77.7833 200.016 79.65C199.616 81.5167 198.932 83.25 197.966 84.85C197.499 85.5833 196.916 86.25 196.216 86.85C195.549 87.4167 194.832 87.8833 194.066 88.25C193.066 88.7167 191.982 89.0333 190.816 89.2C189.649 89.4 188.516 89.45 187.416 89.35C185.416 89.25 183.649 88.75 182.116 87.85C180.616 86.95 179.399 85.8 178.466 84.4C177.566 83 176.966 81.4167 176.666 79.65C176.399 77.85 176.516 76.0167 177.016 74.15C177.549 72.15 178.316 70.5333 179.316 69.3C180.349 68.0333 181.566 67.0667 182.966 66.4ZM184.466 73.1C183.966 73.5667 183.582 74.15 183.316 74.85C183.049 75.55 182.882 76.2833 182.816 77.05C182.749 77.7833 182.799 78.5333 182.966 79.3C183.166 80.0333 183.466 80.7 183.866 81.3C184.199 81.8 184.799 82.2167 185.666 82.55C186.532 82.8833 187.432 83.0833 188.366 83.15C189.432 83.2167 190.366 82.9333 191.166 82.3C191.966 81.6333 192.566 80.8167 192.966 79.85C193.399 78.8833 193.599 77.8333 193.566 76.7C193.532 75.5667 193.232 74.5333 192.666 73.6C192.266 72.9333 191.699 72.45 190.966 72.15C190.266 71.8167 189.516 71.65 188.716 71.65C187.949 71.6167 187.182 71.7333 186.416 72C185.649 72.2333 184.999 72.6 184.466 73.1ZM210.7 66.4C211.8 65.8667 212.95 65.4833 214.15 65.25C215.35 65.0167 216.533 64.9667 217.7 65.1C218.9 65.2333 220.05 65.55 221.15 66.05C222.283 66.55 223.317 67.25 224.25 68.15C225.017 68.9167 225.683 69.85 226.25 70.95C226.817 72.0167 227.233 73.0667 227.5 74.1C228.067 75.9333 228.15 77.7833 227.75 79.65C227.35 81.5167 226.667 83.25 225.7 84.85C225.233 85.5833 224.65 86.25 223.95 86.85C223.283 87.4167 222.567 87.8833 221.8 88.25C220.8 88.7167 219.717 89.0333 218.55 89.2C217.383 89.4 216.25 89.45 215.15 89.35C213.15 89.25 211.383 88.75 209.85 87.85C208.35 86.95 207.133 85.8 206.2 84.4C205.3 83 204.7 81.4167 204.4 79.65C204.133 77.85 204.25 76.0167 204.75 74.15C205.283 72.15 206.05 70.5333 207.05 69.3C208.083 68.0333 209.3 67.0667 210.7 66.4ZM212.2 73.1C211.7 73.5667 211.317 74.15 211.05 74.85C210.783 75.55 210.617 76.2833 210.55 77.05C210.483 77.7833 210.533 78.5333 210.7 79.3C210.9 80.0333 211.2 80.7 211.6 81.3C211.933 81.8 212.533 82.2167 213.4 82.55C214.267 82.8833 215.167 83.0833 216.1 83.15C217.167 83.2167 218.1 82.9333 218.9 82.3C219.7 81.6333 220.3 80.8167 220.7 79.85C221.133 78.8833 221.333 77.8333 221.3 76.7C221.267 75.5667 220.967 74.5333 220.4 73.6C220 72.9333 219.433 72.45 218.7 72.15C218 71.8167 217.25 71.65 216.45 71.65C215.683 71.6167 214.917 71.7333 214.15 72C213.383 72.2333 212.733 72.6 212.2 73.1ZM250.698 66.95C250.964 67.5833 250.981 68.2833 250.748 69.05C250.548 69.8167 250.164 70.3167 249.598 70.55C249.298 70.6833 248.898 70.8 248.398 70.9C247.898 70.9667 247.348 71.0333 246.748 71.1C246.181 71.1667 245.614 71.2167 245.048 71.25C244.481 71.2833 243.998 71.3 243.598 71.3C243.631 72.3 243.664 73.3333 243.698 74.4C243.731 75.4333 243.764 76.45 243.798 77.45C243.831 78.45 243.848 79.4167 243.848 80.35C243.848 81.25 243.831 82.0667 243.798 82.8C243.798 83.3 243.798 83.8833 243.798 84.55C243.798 85.1833 243.748 85.8 243.648 86.4C243.581 87 243.464 87.5333 243.298 88C243.131 88.4333 242.881 88.7167 242.548 88.85C241.514 89.2833 240.564 89.4 239.698 89.2C238.864 89.0333 238.264 88.6833 237.898 88.15C237.631 87.7167 237.431 87.2167 237.298 86.65C237.164 86.05 237.064 85.45 236.998 84.85C236.964 84.2167 236.948 83.6167 236.948 83.05C236.981 82.45 236.998 81.9333 236.998 81.5C237.031 80.1 237.048 78.5167 237.048 76.75C237.081 74.95 237.098 73.15 237.098 71.35H236.348C235.948 71.35 235.431 71.35 234.798 71.35C234.198 71.3167 233.581 71.2667 232.948 71.2C232.348 71.1 231.781 70.9833 231.248 70.85C230.714 70.6833 230.331 70.45 230.098 70.15C229.731 69.7167 229.498 69.25 229.398 68.75C229.331 68.25 229.364 67.7833 229.498 67.35C229.664 66.8833 229.914 66.4833 230.248 66.15C230.581 65.7833 230.964 65.55 231.398 65.45C231.998 65.2833 232.848 65.2 233.948 65.2C235.048 65.1667 236.081 65.1667 237.048 65.2C237.014 64.8667 236.998 64.55 236.998 64.25C236.998 63.9167 236.981 63.6 236.948 63.3C236.914 62.9 236.898 62.4 236.898 61.8C236.898 61.1667 236.931 60.55 236.998 59.95C237.098 59.3167 237.248 58.7333 237.448 58.2C237.648 57.6333 237.931 57.2 238.298 56.9C238.798 56.5 239.298 56.2833 239.798 56.25C240.331 56.1833 240.814 56.25 241.248 56.45C241.714 56.65 242.098 56.95 242.398 57.35C242.731 57.7167 242.964 58.1333 243.098 58.6C243.198 59 243.281 59.4833 243.348 60.05C243.414 60.5833 243.448 61.15 243.448 61.75C243.481 62.35 243.498 62.95 243.498 63.55C243.498 64.15 243.498 64.7 243.498 65.2H243.998C244.498 65.2 245.081 65.1833 245.748 65.15C246.414 65.1167 247.064 65.1333 247.698 65.2C248.364 65.2667 248.964 65.4333 249.498 65.7C250.031 65.9333 250.431 66.35 250.698 66.95ZM270.232 82.15C270.632 82.05 271.032 81.9833 271.432 81.95C271.865 81.9167 272.248 81.9667 272.582 82.1C272.948 82.2333 273.248 82.4667 273.482 82.8C273.715 83.1 273.832 83.5333 273.832 84.1C273.832 84.5 273.732 84.8833 273.532 85.25C273.332 85.6167 273.082 85.95 272.782 86.25C272.482 86.55 272.148 86.8167 271.782 87.05C271.415 87.25 271.065 87.4167 270.732 87.55C269.765 87.9833 268.648 88.3167 267.382 88.55C266.148 88.7833 264.865 88.8667 263.532 88.8C261.732 88.7333 259.998 88.3833 258.332 87.75C256.698 87.0833 255.415 86 254.482 84.5C253.615 83.0333 253.098 81.4 252.932 79.6C252.765 77.8 252.848 76.1 253.182 74.5C253.548 72.5667 254.165 71 255.032 69.8C255.932 68.5667 256.998 67.5833 258.232 66.85C259.732 65.9833 261.415 65.5333 263.282 65.5C265.148 65.4667 266.932 65.8333 268.632 66.6C269.765 67.1 270.782 67.7833 271.682 68.65C272.582 69.4833 273.265 70.5 273.732 71.7C273.865 72 273.965 72.3667 274.032 72.8C274.132 73.2333 274.198 73.7 274.232 74.2C274.265 74.6667 274.265 75.1333 274.232 75.6C274.198 76.0667 274.115 76.4833 273.982 76.85C273.782 77.45 273.532 77.9167 273.232 78.25C272.932 78.5833 272.548 78.8333 272.082 79C271.615 79.1667 271.048 79.2833 270.382 79.35C269.748 79.3833 268.982 79.4167 268.082 79.45C267.282 79.4833 266.532 79.5 265.832 79.5C265.132 79.5 264.415 79.5 263.682 79.5C262.948 79.4667 262.182 79.45 261.382 79.45C260.615 79.4167 259.748 79.3833 258.782 79.35C258.682 80.0167 258.765 80.6 259.032 81.1C259.332 81.5667 259.732 81.9667 260.232 82.3C260.732 82.6 261.298 82.8333 261.932 83C262.565 83.1667 263.182 83.2667 263.782 83.3C264.915 83.3667 265.998 83.2833 267.032 83.05C268.065 82.7833 269.132 82.4833 270.232 82.15ZM268.082 72.45C267.448 71.7167 266.782 71.1833 266.082 70.85C265.548 70.6167 264.982 70.5167 264.382 70.55C263.815 70.55 263.265 70.6333 262.732 70.8C261.765 71.0333 260.948 71.5333 260.282 72.3C260.215 72.3667 260.098 72.5333 259.932 72.8C259.765 73.0333 259.598 73.2833 259.432 73.55C259.298 73.8167 259.198 74.0667 259.132 74.3C259.065 74.5333 259.098 74.65 259.232 74.65H269.032C268.998 74.1833 268.915 73.8 268.782 73.5C268.648 73.1667 268.415 72.8167 268.082 72.45ZM278.323 71.3C278.323 70.9 278.323 70.45 278.323 69.95C278.323 69.4167 278.34 68.8833 278.373 68.35C278.407 67.7833 278.457 67.25 278.523 66.75C278.623 66.2167 278.757 65.75 278.923 65.35C279.19 64.75 279.607 64.35 280.173 64.15C280.74 63.9167 281.357 63.8167 282.023 63.85C282.723 63.85 283.273 63.9667 283.673 64.2C284.073 64.4333 284.373 64.75 284.573 65.15C284.773 65.5167 284.89 65.95 284.923 66.45C284.99 66.9167 285.023 67.4167 285.023 67.95C285.323 67.4167 285.723 66.9833 286.223 66.65C286.757 66.3167 287.29 66.05 287.823 65.85C288.357 65.65 288.84 65.5167 289.273 65.45C289.707 65.35 289.957 65.3 290.023 65.3C290.857 65.2333 291.607 65.2167 292.273 65.25C292.973 65.2833 293.74 65.4333 294.573 65.7C295.107 65.9 295.657 66.1833 296.223 66.55C296.79 66.8833 297.29 67.2833 297.723 67.75C298.157 68.2167 298.44 68.7333 298.573 69.3C298.74 69.8333 298.673 70.4 298.373 71C297.907 71.8333 297.39 72.25 296.823 72.25C296.257 72.2167 295.64 72.1167 294.973 71.95C294.607 71.8833 294.173 71.7333 293.673 71.5C293.173 71.2667 292.74 71.1167 292.373 71.05C291.24 70.8833 290.24 70.9667 289.373 71.3C288.507 71.6333 287.757 72.0333 287.123 72.5C286.39 73.0667 285.757 73.7167 285.223 74.45V81.65C285.223 82.55 285.207 83.4833 285.173 84.45C285.173 85.4167 285.04 86.3 284.773 87.1C284.54 87.8667 284.123 88.5 283.523 89C282.957 89.4667 282.123 89.6667 281.023 89.6C280.423 89.5667 279.89 89.2833 279.423 88.75C278.957 88.1833 278.673 87.6333 278.573 87.1C278.507 86.6 278.457 86 278.423 85.3C278.39 84.6 278.357 83.8667 278.323 83.1C278.323 82.3333 278.323 81.5667 278.323 80.8C278.323 80 278.323 79.2667 278.323 78.6V71.3Z" fill="#409EFF"/>
<defs>
<clipPath id="clip0_1_2">
<rect width="97" height="72" fill="white" transform="translate(15 23)"/>
</clipPath>
</defs>
</svg>
