<svg width="121" height="139" viewBox="0 0 121 139" fill="none" xmlns="http://www.w3.org/2000/svg">
<g clip-path="url(#clip0_1_2)">
<path d="M88.0369 85.5618H62.265H42.557C42.557 85.5618 47.5 98 31.5843 93.862C23.5 91.7601 18.2853 86.4067 16.5134 81.1377C14.7415 75.8688 14.8724 70.1548 16.8838 64.9707C18.8952 59.7867 22.6624 55.4539 27.5426 52.7118C28.2385 45.5569 31.5076 38.8871 36.7549 33.9162C42.0022 28.9453 48.879 26.0037 56.1335 25.6269C63.3881 25.2501 70.5383 27.463 76.2828 31.8629C82.0273 36.2629 85.9843 42.5574 87.4335 49.6008C87.6367 49.6008 87.8338 49.5618 88.0399 49.5618C94.473 49.5622 100.642 52.0911 105.191 56.5923C109.74 61.0935 112.295 67.1981 112.294 73.5633C112.294 79.9285 109.5 89 100.164 93.862C85.5 99 88.0369 85.5618 88.0369 85.5618ZM88.0369 61.5618H87.4305C85.4899 61.8647 83.5133 61.8647 81.5727 61.5618H75.9089V55.5618C75.9089 50.7879 73.9923 46.2095 70.5806 42.8339C67.169 39.4582 62.5418 37.5618 57.717 37.5618C52.8922 37.5618 48.265 39.4582 44.8534 42.8339C41.4417 46.2095 39.5251 50.7879 39.5251 55.5618V61.5618C37.4074 61.7057 35.3427 62.2818 33.4611 63.2538L31.5843 64.5618C31.1731 64.9182 30.7871 65.3021 30.4291 65.7108C30.1322 65.9843 29.8778 66.2997 29.6741 66.6468C28.1987 68.6574 27.4019 71.0772 27.3971 73.5618C27.3933 76.2674 28.2785 78.9008 29.9191 81.0653C31.5597 83.2297 37 85.5618 42.557 85.5618H62.265H88.0369C91.2533 85.5616 94.3378 84.2972 96.6121 82.0468C98.8863 79.7964 100.164 76.7442 100.164 73.5618C100.164 70.3794 98.8863 67.3273 96.6121 65.0768C94.3378 62.8264 91.2533 61.562 88.0369 61.5618Z" fill="#409EFF"/>
</g>
<path d="M86.7391 66.9688H73.9641C72.7094 63.9688 69.4016 62 65.4094 62C61.4172 62 58.1094 63.9688 56.8547 66.9688H44.0797C42.2547 66.9688 41 68 41 69.5C41 71 42.2547 72.0312 44.0797 72.0312H51.95C48.9844 74 47.1594 77.2812 47.1594 80.75V101.469C47.1594 106.25 50.8094 110.469 56.2844 112.25V114.5C56.2844 118.719 60.2766 122 65.4094 122C70.5422 122 74.5344 118.719 74.5344 114.5V112.25C80.0094 110.75 83.6594 106.531 83.6594 101.469V80.75C83.6594 77.2812 81.8344 74.2812 78.7547 72.0312H86.625C88.45 72.0312 89.7047 71 89.7047 69.5C89.7047 68 88.5641 66.9688 86.7391 66.9688ZM65.4094 66.9688C67.2344 66.9688 68.4891 68 68.4891 69.5C68.4891 71 67.2344 72.0312 65.4094 72.0312C63.5844 72.0312 62.3297 71 62.3297 69.5C62.3297 68 63.5844 66.9688 65.4094 66.9688ZM68.4891 114.5C68.4891 116 67.2344 117.031 65.4094 117.031C63.5844 117.031 62.3297 116 62.3297 114.5V109.531C62.3297 108.031 63.5844 107 65.4094 107C67.2344 107 68.4891 108.031 68.4891 109.531V114.5ZM77.6141 101.469C77.6141 103.719 76.1312 105.688 73.9641 107C72.7094 104 69.4016 102.031 65.4094 102.031C61.4172 102.031 58.1094 104 56.8547 106.812C54.6875 105.594 53.2047 103.531 53.2047 101.281V80.4688C53.2047 77.75 55.6 75.2188 58.6797 74.4688C60.1625 75.9688 62.6719 77 65.4094 77C68.1469 77 70.3141 75.9688 72.1391 74.4688C75.4469 75.2188 77.6141 77.75 77.6141 80.4688V101.469Z" fill="#409EFF"/>
<defs>
<clipPath id="clip0_1_2">
<rect width="97" height="72" fill="white" transform="translate(15 23)"/>
</clipPath>
</defs>
</svg>
